#!OML:ASF I:\Actors\actors\Patient Classification 2\Patient 1\Session 1\actor1.ASF
:FULLY-SPECIFIED
:DEGREES
698
root -0.549705 18.6494 5.87037 0.924598 -3.54286 -2.15639
lowerback 3.5453 1.0143 1.58656
upperback -2.33496 1.48469 1.05932
thorax -4.38583 0.706638 0.0961265
lowerneck -10.5284 -1.90894 -2.74898
upperneck 23.6585 -2.58353 1.86696
head 9.21871 -1.25662 0.820605
rclavicle -3.21161e-015 -2.48481e-015
rhumerus -53.3457 -6.97235 -81.6667
rradius 46.4559
rwrist 9.12548
rhand -5.82547 -35.6157
rfingers 7.12502
rthumb 20.0001 -64.6064
lclavicle -3.21161e-015 -2.48481e-015
lhumerus -46.5716 2.50227 88.6377
lradius 43.9099
lwrist 4.4548
lhand -9.43776 -24.8929
lfingers 7.12502
lthumb 16.525 4.42341
rfemur 0 0 0
rtibia 0
rfoot 0 0
rtoes 0
lfemur -2.38615 -3.50997 -12.6313
ltibia 22.4297
lfoot -25.3705 16.7249
ltoes -54.8399
699
root -0.549517 18.6494 5.8626 0.892639 -3.51702 -2.08581
lowerback 3.56114 0.997481 1.48542
upperback -2.35651 1.45747 1.05845
thorax -4.41985 0.695884 0.153288
lowerneck -10.3758 -1.92424 -2.77051
upperneck 23.627 -2.59886 1.84434
head 9.17942 -1.26925 0.816091
rclavicle 4.16205e-015 9.44227e-015
rhumerus -52.7851 -6.97387 -81.4125
rradius 46.4033
rwrist 9.49723
rhand -6.21705 -35.1887
rfingers 7.12502
rthumb 19.6237 -64.2183
lclavicle 4.16205e-015 9.44227e-015
lhumerus -46.0216 2.45571 88.5865
lradius 44.1237
lwrist 4.57406
lhand -9.63062 -24.854
lfingers 7.12502
lthumb 16.3393 4.47773
rfemur 0 0 0
rtibia 0
rfoot 0 0
rtoes 0
lfemur -2.37486 -3.53751 -12.7063
ltibia 22.3961
lfoot -25.3139 16.7443
ltoes -54.8292
700
root -0.548879 18.6486 5.85574 0.865288 -3.51207 -2.04871
lowerback 3.57832 0.984232 1.43454
upperback -2.38372 1.43778 1.0557
thorax -4.45917 0.687294 0.179805
lowerneck -10.2844 -1.91452 -2.72819
upperneck 23.6349 -2.5804 1.7779
head 9.16298 -1.26463 0.789029
rclavicle -7.03822e-015 -1.37161e-014
rhumerus -52.296 -6.92539 -81.3348
rradius 46.5076
rwrist 9.52239
rhand -6.38458 -35.0717
rfingers 7.12502
rthumb 19.4626 -64.1177
lclavicle -7.03822e-015 -1.37161e-014
lhumerus -45.511 2.55226 88.4523
lradius 44.3181
lwrist 4.61743
lhand -9.81447 -24.8154
lfingers 7.12502
lthumb 16.1623 4.53073
rfemur 0 0 0
rtibia 0
rfoot 0 0
rtoes 0
lfemur -2.35341 -3.54403 -12.7482
ltibia 22.3552
lfoot -25.2716 16.7542
ltoes -54.7752
701
root -0.548826 18.6484 5.85064 0.839989 -3.52083 -2.03349
lowerback 3.58193 0.983533 1.40897
upperback -2.40673 1.43576 1.05102
thorax -4.48565 0.686777 0.189159
lowerneck -10.2652 -1.90929 -2.69817
upperneck 23.7346 -2.57817 1.76407
head 9.19336 -1.26257 0.779676
rclavicle 8.54153e-015 1.66979e-014
rhumerus -51.8625 -6.82822 -81.4153
rradius 46.773
rwrist 9.13031
rhand -6.04892 -35.839
rfingers 7.12502
rthumb 19.7853 -64.852
lclavicle 8.54153e-015 1.66979e-014
lhumerus -45.1173 2.38988 88.5197
lradius 45.0485
lwrist 5.05946
lhand -10.0059 -23.2089
lfingers 7.12502
lthumb 15.978 6.15215
rfemur 0 0 0
rtibia 0
rfoot 0 0
rtoes 0
lfemur -2.32264 -3.59029 -12.7739
ltibia 22.3238
lfoot -25.2745 16.7987
ltoes -54.7184
702
root -0.549123 18.6482 5.8458 0.796178 -3.53174 -2.04547
lowerback 3.5808 1.00354 1.42555
upperback -2.39549 1.46267 1.03928
thorax -4.47244 0.699544 0.165902
lowerneck -10.2145 -1.93637 -2.75893
upperneck 23.7762 -2.63417 1.87927
head 9.20219 -1.28224 0.823739
rclavicle 1.11816e-015 4.77083e-015
rhumerus -51.4247 -6.96168 -81.288
rradius 46.9468
rwrist 9.09838
rhand -5.92526 -36.0483
rfingers 7.12502
rthumb 19.9042 -65.049
lclavicle 1.11816e-015 4.77083e-015
lhumerus -44.6902 2.28266 88.498
lradius 45.507
lwrist 5.66636
lhand -10.1449 -22.7362
lfingers 7.12502
lthumb 15.8441 6.63554
rfemur 0 0 0
rtibia 0
rfoot 0 0
rtoes 0
lfemur -2.28125 -3.64077 -12.7669
ltibia 22.3118
lfoot -25.3176 16.8607
ltoes -54.7241
703
root -0.548946 18.6475 5.84045 0.754434 -3.52767 -2.08838
lowerback 3.57034 1.01547 1.47728
upperback -2.37244 1.48072 1.03775
thorax -4.4411 0.707152 0.134468
lowerneck -10.1627 -1.9636 -2.81676
upperneck 23.7677 -2.68356 1.96756
head 9.19285 -1.30145 0.858803
rclavicle 2.5432e-014 1.46107e-014
rhumerus -50.956 -7.14487 -81.0926
rradius 47.0122
rwrist 9.22569
rhand -7.19849 -35.1376
rfingers 7.12502
rthumb 18.6799 -64.2607
lclavicle 2.5432e-014 1.46107e-014
lhumerus -44.224 2.35903 88.3969
lradius 45.6946
lwrist 6.03762
lhand -10.3374 -22.8887
lfingers 7.12502
lthumb 15.6587 6.49767
rfemur 0 0 0
rtibia 0
rfoot 0 0
rtoes 0
lfemur -2.25683 -3.63582 -12.7159
ltibia 22.3167
lfoot -25.3452 16.8309
ltoes -54.772
704
root -0.548286 18.6471 5.8357 0.713105 -3.52243 -2.11086
lowerback 3.58731 1.00522 1.48023
upperback -2.37633 1.46853 1.05875
thorax -4.45539 0.701243 0.155021
lowerneck -10.1496 -1.97061 -2.81465
upperneck 23.7988 -2.68987 1.94653
head 9.20109 -1.30659 0.850684
rclavicle -5.13113e-015 -2.88238e-015
rhumerus -50.5166 -7.1456 -81.0924
rradius 47.1749
rwrist 8.86226
rhand -5.06952 -36.4937
rfingers 7.12502
rthumb 20.7266 -65.4069
lclavicle -5.13113e-015 -2.88238e-015
lhumerus -43.8966 2.44458 88.3577
lradius 45.9141
lwrist 6.24113
lhand -10.6598 -22.9345
lfingers 7.12502
lthumb 15.3482 6.47589
rfemur 0 0 0
rtibia 0
rfoot 0 0
rtoes 0
lfemur -2.23361 -3.63013 -12.691
ltibia 22.3263
lfoot -25.3018 16.8168
ltoes -54.7507
705
root -0.547136 18.6471 5.83305 0.665151 -3.51593 -2.10535
lowerback 3.61381 0.9915 1.45618
upperback -2.39329 1.45058 1.07694
thorax -4.48928 0.693097 0.187921
lowerneck -10.1112 -1.96986 -2.82058
upperneck 23.8382 -2.68508 1.92774
head 9.20732 -1.30722 0.846146
rclavicle 1.01691e-014 5.06901e-015
rhumerus -50.1282 -7.13334 -81.0895
rradius 47.3187
rwrist 8.51889
rhand -4.40905 -37.1522
rfingers 7.12502
rthumb 21.3611 -65.9948
lclavicle 1.01691e-014 5.06901e-015
lhumerus -43.6499 2.46342 88.3643
lradius 46.1017
lwrist 6.43865
lhand -10.9818 -22.8902
lfingers 7.12502
lthumb 15.0381 6.54362
rfemur 0 0 0
rtibia 0
rfoot 0 0
rtoes 0
lfemur -2.19639 -3.65938 -12.7045
ltibia 22.3315
lfoot -25.2369 16.853
ltoes -54.6817
